<?xml version="1.0" encoding="UTF-8" standalone="no"?>
<!DOCTYPE svg PUBLIC "-//W3C//DTD SVG 1.1//EN" "http://www.w3.org/Graphics/SVG/1.1/DTD/svg11.dtd">
<svg version="1.1" xmlns="http://www.w3.org/2000/svg" xmlns:xlink="http://www.w3.org/1999/xlink" preserveAspectRatio="xMidYMid meet" viewBox="0 0 640 640" width="640" height="640"><defs><path d="M238.99 415.4C237.09 414.48 235.2 413.53 233.32 412.58C235.2 413.53 237.09 414.48 238.99 415.4" id="bajSuhoGpn"></path><path d="M207.59 397.92C205.76 396.77 203.95 395.59 202.15 394.4C203.95 395.59 205.76 396.77 207.59 397.92" id="e13VtcSN7"></path><path d="M217.83 404.13C215.95 403.03 214.09 401.92 212.24 400.8C214.09 401.92 215.95 403.03 217.83 404.13" id="aemIe3IVT"></path><path d="M228.3 409.96C226.41 408.94 224.52 407.91 222.65 406.87C224.52 407.91 226.4 408.94 228.3 409.96" id="b18t5esPFw"></path><path d="M272.53 429.46C270.6 428.78 268.68 428.09 266.78 427.37C268.68 428.09 270.6 428.78 272.53 429.46" id="a2ApSiJTMl"></path><path d="M261.09 425.16C259.19 424.4 257.29 423.63 255.4 422.84C257.28 423.63 259.19 424.4 261.09 425.16" id="afeJAeqCz"></path><path d="M284.3 433.39C282.3 432.76 280.31 432.14 278.34 431.48C280.31 432.14 282.3 432.76 284.3 433.39" id="c1nHrs0zI"></path><path d="M185.03 24.48C174.44 55.34 166.32 87.6 161.2 121.21C154.56 164.68 152.62 209.73 155.82 255.81C160.25 319.25 174.74 383.25 197.57 444.67C222.95 512.95 258.66 578.03 302.41 635.55C365.98 575.27 412.71 502.79 441.98 424.46C491.65 291.49 490.04 140.6 435.98 4.45C352.37 30.02 267.1 35.68 185.03 24.48" id="b144RtN09u"></path><path d="M197.58 391.35C195.82 390.15 194.08 388.92 192.34 387.68C194.08 388.92 195.82 390.15 197.58 391.35" id="gaX9hQGnj"></path><path d="M291.97 435.73C291.97 435.72 291.97 435.7 291.98 435.68C291.34 435.5 290.69 435.33 290.05 435.15C290.69 435.34 291.32 435.55 291.97 435.73" id="a2zAOtQHsN"></path><path d="M249.93 420.47C248.03 419.63 246.13 418.78 244.25 417.91C246.13 418.78 248.03 419.63 249.93 420.47" id="c33ggeF0U9"></path><path d="M187.83 384.42C186.16 383.19 184.51 381.93 182.86 380.66C184.51 381.93 186.16 383.19 187.83 384.42" id="a3st2Uh9aG"></path><path d="M255.4 422.84C253.56 422.07 251.74 421.28 249.93 420.47C251.74 421.28 253.56 422.07 255.4 422.84" id="aXiePGynX"></path><path d="M290.05 435.15C288.12 434.59 286.21 433.98 284.3 433.39C286.21 433.98 288.12 434.59 290.05 435.15" id="b1sOCjCVWZ"></path><path d="M266.78 427.37C264.87 426.65 262.98 425.91 261.09 425.16C262.98 425.91 264.87 426.65 266.78 427.37" id="f2tW3KVUVn"></path><path d="M278.34 431.48C276.39 430.83 274.45 430.14 272.53 429.46C274.46 430.14 276.39 430.83 278.34 431.48" id="a1Fr9HDyxW"></path><path d="M192.34 387.68C190.83 386.6 189.32 385.53 187.83 384.42C189.32 385.53 190.83 386.6 192.34 387.68" id="c4xPtgwGeK"></path><path d="M202.15 394.4C200.62 393.39 199.09 392.38 197.58 391.35C199.09 392.38 200.62 393.39 202.15 394.4" id="b1DsMlP6qG"></path><path d="M244.25 417.91C242.49 417.09 240.74 416.25 238.99 415.4C240.74 416.25 242.49 417.09 244.25 417.91" id="g15gYquHoq"></path><path d="M179.82 378.36C180.82 379.15 181.85 379.89 182.86 380.66C181.85 379.89 180.84 379.11 179.85 378.33C179.84 378.34 179.83 378.35 179.82 378.36" id="adFetVCIA"></path><path d="M233.32 412.58C231.64 411.71 229.97 410.84 228.3 409.96C229.97 410.84 231.64 411.71 233.32 412.58" id="c5YqDNNNU6"></path><path d="M212.24 400.8C210.68 399.85 209.13 398.9 207.59 397.92C209.13 398.9 210.68 399.85 212.24 400.8" id="b1GwU0yXnZ"></path><path d="M222.65 406.87C221.03 405.96 219.43 405.06 217.83 404.13C219.43 405.06 221.03 405.96 222.65 406.87" id="adLZTI54A"></path><path d="M413.24 179.31C413.24 234.51 368.43 279.31 313.24 279.31C258.05 279.31 213.24 234.51 213.24 179.31C213.24 124.12 258.05 79.31 313.24 79.31C368.43 79.31 413.24 124.12 413.24 179.31Z" id="f3evsrKcR5"></path></defs><g><g><g><use xlink:href="#bajSuhoGpn" opacity="1" fill="#392320" fill-opacity="1"></use><g><use xlink:href="#bajSuhoGpn" opacity="1" fill-opacity="0" stroke="#000000" stroke-width="1" stroke-opacity="0"></use></g></g><g><use xlink:href="#e13VtcSN7" opacity="1" fill="#392320" fill-opacity="1"></use><g><use xlink:href="#e13VtcSN7" opacity="1" fill-opacity="0" stroke="#000000" stroke-width="1" stroke-opacity="0"></use></g></g><g><use xlink:href="#aemIe3IVT" opacity="1" fill="#392320" fill-opacity="1"></use><g><use xlink:href="#aemIe3IVT" opacity="1" fill-opacity="0" stroke="#000000" stroke-width="1" stroke-opacity="0"></use></g></g><g><use xlink:href="#b18t5esPFw" opacity="1" fill="#392320" fill-opacity="1"></use><g><use xlink:href="#b18t5esPFw" opacity="1" fill-opacity="0" stroke="#000000" stroke-width="1" stroke-opacity="0"></use></g></g><g><use xlink:href="#a2ApSiJTMl" opacity="1" fill="#392320" fill-opacity="1"></use><g><use xlink:href="#a2ApSiJTMl" opacity="1" fill-opacity="0" stroke="#000000" stroke-width="1" stroke-opacity="0"></use></g></g><g><use xlink:href="#afeJAeqCz" opacity="1" fill="#392320" fill-opacity="1"></use><g><use xlink:href="#afeJAeqCz" opacity="1" fill-opacity="0" stroke="#000000" stroke-width="1" stroke-opacity="0"></use></g></g><g><use xlink:href="#c1nHrs0zI" opacity="1" fill="#392320" fill-opacity="1"></use><g><use xlink:href="#c1nHrs0zI" opacity="1" fill-opacity="0" stroke="#000000" stroke-width="1" stroke-opacity="0"></use></g></g><g><use xlink:href="#b144RtN09u" opacity="1" fill="#ed2223" fill-opacity="1"></use><g><use xlink:href="#b144RtN09u" opacity="1" fill-opacity="0" stroke="#000000" stroke-width="1" stroke-opacity="0"></use></g></g><g><use xlink:href="#gaX9hQGnj" opacity="1" fill="#392320" fill-opacity="1"></use><g><use xlink:href="#gaX9hQGnj" opacity="1" fill-opacity="0" stroke="#000000" stroke-width="1" stroke-opacity="0"></use></g></g><g><use xlink:href="#a2zAOtQHsN" opacity="1" fill="#392320" fill-opacity="1"></use><g><use xlink:href="#a2zAOtQHsN" opacity="1" fill-opacity="0" stroke="#000000" stroke-width="1" stroke-opacity="0"></use></g></g><g><use xlink:href="#c33ggeF0U9" opacity="1" fill="#392320" fill-opacity="1"></use><g><use xlink:href="#c33ggeF0U9" opacity="1" fill-opacity="0" stroke="#000000" stroke-width="1" stroke-opacity="0"></use></g></g><g><use xlink:href="#a3st2Uh9aG" opacity="1" fill="#392320" fill-opacity="1"></use><g><use xlink:href="#a3st2Uh9aG" opacity="1" fill-opacity="0" stroke="#000000" stroke-width="1" stroke-opacity="0"></use></g></g><g><use xlink:href="#aXiePGynX" opacity="1" fill="#e0a8a4" fill-opacity="1"></use><g><use xlink:href="#aXiePGynX" opacity="1" fill-opacity="0" stroke="#000000" stroke-width="1" stroke-opacity="0"></use></g></g><g><use xlink:href="#b1sOCjCVWZ" opacity="1" fill="#e0a8a4" fill-opacity="1"></use><g><use xlink:href="#b1sOCjCVWZ" opacity="1" fill-opacity="0" stroke="#000000" stroke-width="1" stroke-opacity="0"></use></g></g><g><use xlink:href="#f2tW3KVUVn" opacity="1" fill="#e0a8a4" fill-opacity="1"></use><g><use xlink:href="#f2tW3KVUVn" opacity="1" fill-opacity="0" stroke="#000000" stroke-width="1" stroke-opacity="0"></use></g></g><g><use xlink:href="#a1Fr9HDyxW" opacity="1" fill="#e0a8a4" fill-opacity="1"></use><g><use xlink:href="#a1Fr9HDyxW" opacity="1" fill-opacity="0" stroke="#000000" stroke-width="1" stroke-opacity="0"></use></g></g><g><use xlink:href="#c4xPtgwGeK" opacity="1" fill="#e0a8a4" fill-opacity="1"></use><g><use xlink:href="#c4xPtgwGeK" opacity="1" fill-opacity="0" stroke="#000000" stroke-width="1" stroke-opacity="0"></use></g></g><g><use xlink:href="#b1DsMlP6qG" opacity="1" fill="#e0a8a4" fill-opacity="1"></use><g><use xlink:href="#b1DsMlP6qG" opacity="1" fill-opacity="0" stroke="#000000" stroke-width="1" stroke-opacity="0"></use></g></g><g><use xlink:href="#g15gYquHoq" opacity="1" fill="#e0a8a4" fill-opacity="1"></use><g><use xlink:href="#g15gYquHoq" opacity="1" fill-opacity="0" stroke="#000000" stroke-width="1" stroke-opacity="0"></use></g></g><g><use xlink:href="#adFetVCIA" opacity="1" fill="#e0a8a4" fill-opacity="1"></use><g><use xlink:href="#adFetVCIA" opacity="1" fill-opacity="0" stroke="#000000" stroke-width="1" stroke-opacity="0"></use></g></g><g><use xlink:href="#c5YqDNNNU6" opacity="1" fill="#e0a8a4" fill-opacity="1"></use><g><use xlink:href="#c5YqDNNNU6" opacity="1" fill-opacity="0" stroke="#000000" stroke-width="1" stroke-opacity="0"></use></g></g><g><use xlink:href="#b1GwU0yXnZ" opacity="1" fill="#e0a8a4" fill-opacity="1"></use><g><use xlink:href="#b1GwU0yXnZ" opacity="1" fill-opacity="0" stroke="#000000" stroke-width="1" stroke-opacity="0"></use></g></g><g><use xlink:href="#adLZTI54A" opacity="1" fill="#e0a8a4" fill-opacity="1"></use><g><use xlink:href="#adLZTI54A" opacity="1" fill-opacity="0" stroke="#000000" stroke-width="1" stroke-opacity="0"></use></g></g><g><use xlink:href="#f3evsrKcR5" opacity="1" fill="#ffffff" fill-opacity="1"></use></g></g></g></svg>